<svg id="aa668f1d-053a-4fd7-aed4-9f2abd883517" data-name="Layer 1" xmlns="http://www.w3.org/2000/svg" viewBox="0 0 596.49 138.48">
  <defs>
    <style>
      .ec5c2d29-f2a8-40b8-93f9-800f64df7250 {
        fill: #fff;
      }
    </style>
  </defs>
  <title>LogoHarmonyLeReste</title>
  <path class="ec5c2d29-f2a8-40b8-93f9-800f64df7250" d="M114.37,175q-4-2.44-4.54-6.08a13.81,13.81,0,0,1,1.32-7.8,36.34,36.34,0,0,1,5.11-8.15,60.16,60.16,0,0,1,6.82-7.12,37.59,37.59,0,0,1,6.46-4.71q7.25-3.83,12.14-2.91a12.08,12.08,0,0,1,7.85,5,27.77,27.77,0,0,1,4.32,9.9,55.53,55.53,0,0,1,1.51,11.66q.24,6.66.17,13.3t-.7,13.27a9.81,9.81,0,0,0,0,1.33v.48a.5.5,0,0,0,.19.36,1.29,1.29,0,0,0,.42.26.86.86,0,0,0,.43.07l.42-.11c.61-.14,1.21-.3,1.81-.48A68.41,68.41,0,0,1,177,189.91c1.18,0,1.89-.34,2.12-.92a5,5,0,0,0,.16-2.41,3.54,3.54,0,0,0,0-.45,3.19,3.19,0,0,0,0-.45q-.37-6.08-.54-12.94a131.93,131.93,0,0,1,.35-13.65,60.32,60.32,0,0,1,2.27-12.59,17.21,17.21,0,0,1,2.58-5.33,4.59,4.59,0,0,1,3.71-2.11,4.34,4.34,0,0,1,3.45,2.25,17.51,17.51,0,0,1,2.49,5.86,13.84,13.84,0,0,1,.21,4.62,6.15,6.15,0,0,1-.82,2.56c-.35.44-.57.34-.66-.32s-.09-1.07-.13-1.63-.05-1-.11-1.57a25.46,25.46,0,0,0-1-5.69,9.08,9.08,0,0,0-1.95-3.77,1.58,1.58,0,0,0-2.49.12q-1.34,1.27-2.61,6a45.09,45.09,0,0,0-1.31,7.2c-.39,3.24-.7,6.84-.94,10.78s-.36,7.76-.37,11.42a76.76,76.76,0,0,0,.42,9.11c.3,2.4.78,3.69,1.45,3.87l2.24.27c2.29.26,4.57.55,6.84.85a16.72,16.72,0,0,1,2.61.69l.48.16a.27.27,0,0,1,.17.2,1.9,1.9,0,0,1,.12.36s0,0,0,0,0,.05-.07.08a1.11,1.11,0,0,1-.16.11.17.17,0,0,1-.15,0,56.48,56.48,0,0,0-10.46-1c-1.11,0-1.83.16-2.14.53a3.1,3.1,0,0,0-.3,2.18c.24,2.74.71,6.53,1.41,11.4q.83,5.79,1.45,11.06a44.44,44.44,0,0,1,.44,7.57c0,.18-.07.28-.15.32a.36.36,0,0,1-.27,0,1.14,1.14,0,0,1-.25-.18c-.07-.07-.11-.12-.11-.16q-1.59-7.4-2.88-14.84c-.87-5-1.53-9.95-2-15a7.32,7.32,0,0,0-.19-1,3.06,3.06,0,0,1,0-.32,1.83,1.83,0,0,0-1.75-1.42,9.9,9.9,0,0,0-2.67.12l-.32.05a78.3,78.3,0,0,0-18.61,4.69,3.31,3.31,0,0,0-2.34,3c-.39,3.34-.85,6.66-1.38,10A138.81,138.81,0,0,1,147.63,232q-2.83,8.28-5.78,11.7t-5.55,2.94q-2.61-.48-4.41-3.9a24.24,24.24,0,0,1-2.32-8.84,42.27,42.27,0,0,1,.66-11.88A33.13,33.13,0,0,1,135,210.21a39.89,39.89,0,0,1,8.62-9.41,35.62,35.62,0,0,1,6.55-4.24,3.11,3.11,0,0,0,1.81-2.9c.07-.88.16-1.77.27-2.66.14-1.24.24-2.48.29-3.73a236.54,236.54,0,0,0,.13-23.82,53.12,53.12,0,0,0-1.43-10.3,23.76,23.76,0,0,0-3.81-8.56,10,10,0,0,0-6.89-4.11q-4.32-.61-10.71,3a50.62,50.62,0,0,0-7,5,41.63,41.63,0,0,0-6.42,6.72,21.26,21.26,0,0,0-3.84,7.72,9,9,0,0,0,.83,6.75,7.68,7.68,0,0,0,4.92,3.52,10.16,10.16,0,0,1,2.92,1.07c.52.35.74.69.65,1a1.38,1.38,0,0,1-.72.8,5.33,5.33,0,0,1-3.19.18A11.49,11.49,0,0,1,114.37,175Zm36.52,29c.05-.48.09-.92.13-1.31.07-.81.11-1.52.13-2.13a.7.7,0,0,0-.4-.68.88.88,0,0,0-.82,0,35,35,0,0,0-15.07,16,32.69,32.69,0,0,0-2.7,10.92,35.85,35.85,0,0,0,.63,10.41q1,4.65,3.07,6.42c1.36,1.18,2.9.81,4.63-1.09s3.5-5.94,5.31-12.08S149.31,215.49,150.89,203.94Z" transform="translate(-109.7 -125)"/>
  <path class="ec5c2d29-f2a8-40b8-93f9-800f64df7250" d="M226.47,194c.84-.33,1.35-.41,1.52-.26s-.15.52-1,1.11a34.41,34.41,0,0,1-6.25,3.36,23.81,23.81,0,0,1-6.73,1.77,3.73,3.73,0,0,1-3.14-1.16,11,11,0,0,1-1.75-2.65,6.66,6.66,0,0,0-.95-1.55.73.73,0,0,0-1.1-.06c-1,.68-1.93,1.43-2.88,2.24a28.3,28.3,0,0,1-3.33,2.55,8.79,8.79,0,0,1-3.7,1.41,2.14,2.14,0,0,1-2.59-2.1,7.92,7.92,0,0,1,.37-3.32,19.31,19.31,0,0,1,6.05-8.4,5.86,5.86,0,0,1,4.74-1.2,3.17,3.17,0,0,1,1.68.9,2.58,2.58,0,0,1,.83,2,.56.56,0,0,1-.15.32l-.28.27,0,0a.34.34,0,0,1-.18,0l-.23,0a1,1,0,0,1-.37-.17c-.11-.1-.23-.2-.34-.32a6.72,6.72,0,0,0-.78-.65,1.62,1.62,0,0,0-1-.25,4.47,4.47,0,0,0-2.69,1,20.69,20.69,0,0,0-3,3.21,13.8,13.8,0,0,0-2.05,3.87c-.49,1.54-.39,2.46.29,2.73a3.52,3.52,0,0,0,2.79-.46,15.63,15.63,0,0,0,2.51-1.67c.82-.66,1.47-1.22,2-1.68a5.64,5.64,0,0,0,.41-.39c1.42-1.23,2.55-1.8,3.39-1.68s1.57,1,2.21,2.66a6,6,0,0,0,1.47,2,3.92,3.92,0,0,0,2.77,1,13.07,13.07,0,0,0,4.62-1.16A69.94,69.94,0,0,0,226.47,194Z" transform="translate(-109.7 -125)"/>
  <path class="ec5c2d29-f2a8-40b8-93f9-800f64df7250" d="M233.47,218.86a15.56,15.56,0,0,1-1.28-6.47,56.05,56.05,0,0,1,.45-7.94c.35-2.66.68-4.92,1-6.76s.29-3-.19-3.32a3.87,3.87,0,0,0-2.74,0,29.63,29.63,0,0,1-3.15.48,1.09,1.09,0,0,1-1.08-.48,11.94,11.94,0,0,1-1.57-3.48,9.7,9.7,0,0,1,0-3.7c.45-3.06,1.24-5.28,2.35-6.66s2.24-2,3.36-2a2.67,2.67,0,0,1,2.44,1.81c.5,1.16.37,2.75-.42,4.77-.42,1.16-.86,2.31-1.31,3.44-.38.95-.74,1.89-1.1,2.84a.68.68,0,0,0,0,.38.46.46,0,0,0,.15.32.66.66,0,0,0,.34.19.82.82,0,0,0,.41,0,13.56,13.56,0,0,0,1.37-.32c.49-.11,1-.22,1.46-.31a2.06,2.06,0,0,1,1.62.37,1.93,1.93,0,0,1,.8,1.41,18.84,18.84,0,0,1-.19,3.76c-.2,1.33-.43,2.57-.69,3.71a55.57,55.57,0,0,0-.94,7.92,32.31,32.31,0,0,0,.48,7.95q.73,2.38,2.7.78a24.24,24.24,0,0,0,4.46-5.48q2.5-3.87,4.9-8.24c1.59-2.91,2.93-5.41,4-7.47.43-.8.78-1.47,1-2a.77.77,0,0,1,.36-.2.62.62,0,0,1,.4,0,.67.67,0,0,1,.16.17.83.83,0,0,1,.12.27.58.58,0,0,1,0,.26c-.06.18-.47,1.07-1.23,2.65s-1.75,3.54-3,5.85-2.57,4.65-4,7a54.64,54.64,0,0,1-4.38,6.25,11.72,11.72,0,0,1-4.05,3.48C235.24,220.67,234.24,220.24,233.47,218.86ZM227,187.61c-.24,1.89-.17,3,.22,3.33s1.1-.54,2.12-2.62a17.86,17.86,0,0,0,1.91-5.92c.08-1.41-.16-2.19-.71-2.35s-1.18.39-1.89,1.61A17.5,17.5,0,0,0,227,187.61Z" transform="translate(-109.7 -125)"/>
  <path class="ec5c2d29-f2a8-40b8-93f9-800f64df7250" d="M283.23,183.63c-.5,3.17-1.07,6.35-1.68,9.52-.17.78-.32,1.57-.47,2.37q-.68,3.31-1.23,6.65a55.8,55.8,0,0,0-.7,6.73c0,1.89.39,2.62,1.32,2.21a11.53,11.53,0,0,0,3.52-3.23q2.11-2.59,4.25-5.73t3.51-5.34c.6-.93,1-1.55,1.25-1.88a1.28,1.28,0,0,1,.46-.47c.15-.08.23.08.24.47a19.31,19.31,0,0,1-1.09,2.15q-1.08,2-2.81,4.82t-3.73,5.64a31.74,31.74,0,0,1-3.84,4.59c-1.24,1.2-2.3,1.76-3.17,1.67a2.57,2.57,0,0,1-1.85-1.14,5.43,5.43,0,0,1-.6-3.23,72.42,72.42,0,0,1,.79-7.93q.75-4.37,1.68-8.69.42-2.06.81-4.08c.06-.34.13-.67.22-1,.29-1.45.55-2.9.78-4.37a9.44,9.44,0,0,0,.08-3.65c-.2-.58-.54-.72-1-.43a6.68,6.68,0,0,0-1.61,1.58c-.6.75-1.16,1.54-1.7,2.35a50,50,0,0,0-2.7,4.74c-.82,1.64-1.61,3.3-2.38,5-.57,1.25-1.15,2.49-1.73,3.71a14.9,14.9,0,0,1-1.72,2.77q-1,1.28-1.86,1.11c-.56-.11-.91-1.12-1.06-3-.07-1.15-.11-2.31-.12-3.47,0-.81,0-1.61-.08-2.41q-.14-3.08-.72-3.6t-1.44.72a28.17,28.17,0,0,0-1.94,3.41q-1.36,2.87-2.68,5.74-.58,1.32-1.2,2.64l-.34.73c-.47,1-1,2.07-1.47,3.08a7.6,7.6,0,0,1-.92,1.27l-.05.07a1.52,1.52,0,0,1-1.36.44,1.36,1.36,0,0,1-1.11-.83,3.32,3.32,0,0,0-.12-.32,8.53,8.53,0,0,1-.39-1.27,30.72,30.72,0,0,1-.15-9.62.45.45,0,0,1,.05-.19,1.24,1.24,0,0,1,.18-.27.71.71,0,0,1,.42-.23,1.07,1.07,0,0,1,.68.13,1,1,0,0,1,.51.8,4.63,4.63,0,0,1-.17,1.8,9.41,9.41,0,0,0-.28,1.85q.38,4.49,1.24,5c.57.35,1.49-.82,2.74-3.53.57-1.25,1.14-2.58,1.71-4q1-2.49,2.05-4.69c1.74-3.56,3.09-5.58,4-6s1.62.18,2,1.93a42,42,0,0,1,.8,7.24,4.76,4.76,0,0,0,.47,2.27c.24.26.51.21.81-.16a7.66,7.66,0,0,0,.9-1.48c.3-.61.56-1.18.77-1.68a99,99,0,0,1,5.4-10.52Q278,178.14,280,177c1.34-.74,2.32-.53,2.95.62S283.65,180.8,283.23,183.63Z" transform="translate(-109.7 -125)"/>
  <path class="ec5c2d29-f2a8-40b8-93f9-800f64df7250" d="M361.67,194.3a.79.79,0,0,1,.5,0,.31.31,0,0,1,.27.28c0,.15-.15.35-.47.61a111.18,111.18,0,0,1-13.31,8,30.41,30.41,0,0,1-3.86,1.64,4.65,4.65,0,0,1-4.09-.13,4.55,4.55,0,0,1-1.84-3.58c-.1-1-.18-2.1-.24-3.35-.1-1.79-.25-3.54-.46-5.26a11.27,11.27,0,0,0-1-3.89c-.47-.88-1.16-1-2.07-.26s-2.14,2.59-3.67,5.65A76.24,76.24,0,0,0,327,204.8c-.65,1.82-1.3,2.77-1.94,2.86s-.9-.59-.77-2.06c.29-2.21.59-4.42.9-6.61q.34-2.3.66-4.62c.43-3.19.83-6.38,1.22-9.57.08-.63,0-1-.19-1.12a.84.84,0,0,0-.82.1,3.83,3.83,0,0,0-.94.7,32.13,32.13,0,0,1-7.9,6,46.6,46.6,0,0,1-8.14,2.87c-.94.26-2,.56-3.08.9a1,1,0,0,0-.75.88,12.17,12.17,0,0,1-2,4.93,6,6,0,0,1-3.77,2.59,6.18,6.18,0,0,1-2.18,0,4.52,4.52,0,0,1-2.24-1.29,6.88,6.88,0,0,1-1.64-3.09,12.52,12.52,0,0,1-.41-3.51,4.6,4.6,0,0,1,.85-2.36,3.22,3.22,0,0,1,1.52-1.32,1.26,1.26,0,0,1,1.25.36,1.75,1.75,0,0,1,.58,1.2,1.66,1.66,0,0,1-.08.22,21.73,21.73,0,0,0-.73,2.54,7.41,7.41,0,0,0,0,3.47,2.72,2.72,0,0,0,2.58,2,3.25,3.25,0,0,0,2.8-1.55,8,8,0,0,0,1.45-4,1.39,1.39,0,0,0-.81-1.37,11.81,11.81,0,0,0-1.22-.46c-.37-.13-.75-.28-1.12-.44a5.94,5.94,0,0,1-2.56-2.1,2.45,2.45,0,0,1,1.08-3.94,2.87,2.87,0,0,1,1.87-.09,5.23,5.23,0,0,1,2.71,1.91,21.78,21.78,0,0,1,1.29,2.12,1.51,1.51,0,0,0,1.39.78,17.67,17.67,0,0,0,7.5-1.11,26.52,26.52,0,0,0,6.8-3.71,24.52,24.52,0,0,0,5-4.87,7.09,7.09,0,0,1,.44-.61,17.3,17.3,0,0,1,1.74-2.25c.65-.7,1.22-1,1.72-.8.46.34.65,1.67.57,4s-.28,4.87-.59,7.63-.58,5-.81,6.61c-.13,1-.18,1.54-.17,1.56a22,22,0,0,0,1.22-2.32c.61-1.22,1.31-2.56,2.12-4a26.14,26.14,0,0,1,2.57-3.86,4.86,4.86,0,0,1,2.69-1.91,2.63,2.63,0,0,1,2.67,1.89,16.44,16.44,0,0,1,1.15,4.88c.18,1.92.3,3.68.35,5.29a26.75,26.75,0,0,0,.17,2.78,4,4,0,0,0,1.39,2.53,2.34,2.34,0,0,0,2.37.3,43.57,43.57,0,0,0,5.12-2.45q2.49-1.41,4.94-2.92Q358.18,196.11,361.67,194.3Zm-60.79-3.59c.44,0,.65-.18.62-.43a1.13,1.13,0,0,0-.47-.74,1.5,1.5,0,0,0-.95-.39c-.38.21-.57.41-.59.59a.59.59,0,0,0,.24.51,2.12,2.12,0,0,0,.63.34A1.81,1.81,0,0,0,300.88,190.71Z" transform="translate(-109.7 -125)"/>
  <path class="ec5c2d29-f2a8-40b8-93f9-800f64df7250" d="M361.5,197.62a12.49,12.49,0,0,1-.16-5.21,14.89,14.89,0,0,1,1.77-4.92,2.59,2.59,0,0,1,.88-.86.6.6,0,0,1,.38,0,.58.58,0,0,1,.33.17,1.13,1.13,0,0,0,.16.13.11.11,0,0,0,.1,0l.06,0-.1.2c0,.06,0,.12-.05.17-.24.73-.52,1.45-.83,2.17a13.61,13.61,0,0,0-1,3.84,8.94,8.94,0,0,0,.26,3.95,1.75,1.75,0,0,0,.65.82,1.39,1.39,0,0,0,1,.23,12.92,12.92,0,0,0,4.61-2.37c1.62-1.22,3.11-2.46,4.5-3.71.65-.59,1.24-1.11,1.78-1.56l.83-.71c.6-.54,1.23-1.06,1.88-1.56a8.19,8.19,0,0,1,2-1.18,2.37,2.37,0,0,1,2.87.59,6.1,6.1,0,0,1,1.19,2.88,32.73,32.73,0,0,1,.19,6.71c-.08.82-.16,1.62-.24,2.42-.28,2.82-.55,5.64-.83,8.47-.08,1.14,0,1.84.4,2.1s.71.19,1.09-.22l1-1q3.46-3.85,8.09-8.47a44.46,44.46,0,0,1,8.24-6.76l.25-.07a1.47,1.47,0,0,1,.56-.11.59.59,0,0,1,.51.28c.39.5.21.86-.54,1.07q-2.1.93-6,4.75t-7.76,8.15q-3.82,4.33-5.73,6.78a6.49,6.49,0,0,0-1.32,3c-.44,2.9-.91,5.8-1.42,8.72q-2.56,14.33-6,23t-6.56,11.93c-2.07,2.18-3.66,2.62-4.75,1.35s-1.3-4.2-.62-8.76,2.63-10.67,5.87-18.35a114.63,114.63,0,0,1,9.25-17.41,4,4,0,0,1,.22-.34c.39-.59.76-1.19,1.1-1.81a4.49,4.49,0,0,0,.59-1.56c.16-1.31.32-2.62.49-3.93q.51-3.92.94-7.84c.28-2.62.46-5.25.52-7.89s-.1-4.39-.54-5.17-1.09-.91-2-.39a17.16,17.16,0,0,0-3.18,2.66c-.6.58-1.23,1.21-1.88,1.88-1.25,1.28-2.53,2.53-3.84,3.73a18.57,18.57,0,0,1-3.79,2.79,3.91,3.91,0,0,1-3.23.46C362.75,200.5,362,199.42,361.5,197.62Zm17.07,27.85a2.37,2.37,0,0,0,0-1c-.08-.24-.21-.36-.39-.34a.9.9,0,0,0-.57.27,2.41,2.41,0,0,0-.36.48,118,118,0,0,0-5.49,10.82,95.3,95.3,0,0,0-6.7,17.16q-1.68,6.69-.88,8.94t3.16-.66q2.37-2.91,5.41-11.63A168.71,168.71,0,0,0,378.57,225.47ZM365,186.9l0,0Z" transform="translate(-109.7 -125)"/>
  <path class="ec5c2d29-f2a8-40b8-93f9-800f64df7250" d="M426.51,188.93a8.54,8.54,0,0,0,1.83-2.34c.46-.88.87-1.78,1.25-2.72q2.67-6.47,5.19-13,3.09-8.1,6.13-16.22l5.27-14q1.76-4.6,3.69-9.15a42.09,42.09,0,0,1,2-4,8.74,8.74,0,0,1,1.34-1.78,1.76,1.76,0,0,1,1.77-.66,1.93,1.93,0,0,1,1.31,1.46,13.92,13.92,0,0,1,.59,3,28,28,0,0,1-.11,4.2c0,.27-.05.53-.08.78q-.59,5.73-1.4,11.37-1.57,10.4-3.35,20.77-1.86,10.83-4.28,21.53T442,209.26c-.42,1.3-.84,2.58-1.27,3.85-.31.88-.6,1.76-.9,2.65s-.09,1.55.71,1.8c1.88.63,3.75,1.27,5.61,1.94q4.5,1.67,9.09,3a55.91,55.91,0,0,0,7,1.57,37.31,37.31,0,0,0,6.87.43,45.2,45.2,0,0,0,8.86-.68,52.07,52.07,0,0,0,8.38-2.24c.9-.32,1.81-.61,2.73-.86a.32.32,0,0,1,.19,0,.82.82,0,0,1,.24.1l.19.11,0,.09a.75.75,0,0,0-.07.12.2.2,0,0,1-.08.08l-.29.15c-.64.35-1.29.66-2,1a51.13,51.13,0,0,1-17.4,4.21,34.58,34.58,0,0,1-7-.26,53.85,53.85,0,0,1-6.86-1.41q-5.73-1.64-11.3-3.76-2.55-.92-5.11-1.8a1.17,1.17,0,0,0-1.48.73l-.62,1.2c-.42.85-.86,1.66-1.34,2.45a14.13,14.13,0,0,1-2.08,2.6,2.93,2.93,0,0,1-1.61.69,1.8,1.8,0,0,1-1.81-1,3.72,3.72,0,0,1-.31-.67,6.83,6.83,0,0,1,.28-4.87,5.86,5.86,0,0,1,3.39-3.16l.27-.11A1.84,1.84,0,0,1,435,217a2.44,2.44,0,0,0,2.26-.81,7.13,7.13,0,0,0,1.1-2.3q3.66-11.22,6.42-22.72,2.93-12.64,5-25.48,1.71-10.17,3.29-20.37.63-4.14,1.13-8.32c.14-1.14.28-2.28.44-3.43,0-.29.05-.6.08-.91v-.24c.21-3.31,0-4.85-.58-4.61a2.83,2.83,0,0,0-1.35,1.15,9.86,9.86,0,0,0-.8,1.63c-.1.26-.2.51-.31.76-1.44,3.1-2.75,6.25-4,9.43q-2.46,6.44-4.88,12.89-2.62,7.05-5.32,14.11-2.35,6.08-4.83,12.08l-1.38,3.38a23.89,23.89,0,0,1-2.62,5,2.82,2.82,0,0,1-1.69,1.31.63.63,0,0,1-.34,0,.62.62,0,0,1-.28-.3A.26.26,0,0,1,426.51,188.93Zm6.71,35.89a13.68,13.68,0,0,0,2.75-5.14.53.53,0,0,0-.16-.46.69.69,0,0,0-.49-.23,3.8,3.8,0,0,0-3.12,1.7,4.58,4.58,0,0,0-.61,3.75.84.84,0,0,0,.16.33.82.82,0,0,0,.24.25.6.6,0,0,0,.3.14.89.89,0,0,0,.32,0A1.1,1.1,0,0,0,433.22,224.82Z" transform="translate(-109.7 -125)"/>
  <path class="ec5c2d29-f2a8-40b8-93f9-800f64df7250" d="M457.12,191.44a1.42,1.42,0,0,0-1.3.88,8.71,8.71,0,0,0-.66,6.13,5.74,5.74,0,0,0,4.19,4.3,17.61,17.61,0,0,0,7.8.08,57.08,57.08,0,0,0,9.36-2.56q4.83-1.76,8.88-3.64t6.3-3.14a.23.23,0,0,1,.2,0c.09,0,.15.16.19.37a.51.51,0,0,1-.1.46,53.69,53.69,0,0,1-5.41,3.2,93.83,93.83,0,0,1-8.64,4,63.5,63.5,0,0,1-9.75,3.15,22.14,22.14,0,0,1-8.74.48,8.06,8.06,0,0,1-4.92-2.88,8.87,8.87,0,0,1-1.79-5.06,12.6,12.6,0,0,1,4.85-10.42,8.05,8.05,0,0,1,4.3-1.59,4.31,4.31,0,0,1,2,.44,2.16,2.16,0,0,1,1.23,1.6,2.11,2.11,0,0,1-.6,1.94,6.57,6.57,0,0,1-2,1.39A13.1,13.1,0,0,1,457.12,191.44Zm4.88-4.15a3.91,3.91,0,0,0-2.15.44,2.22,2.22,0,0,0-1,1c-.13.35,0,.55.29.6a6.26,6.26,0,0,0,3.2-.71c.33-.16.49-.33.49-.51a.63.63,0,0,0-.27-.49A2.54,2.54,0,0,0,462,187.29Z" transform="translate(-109.7 -125)"/>
  <path class="ec5c2d29-f2a8-40b8-93f9-800f64df7250" d="M532.08,130.68a92.45,92.45,0,0,1,23.82,1q11,2.34,17,5.42t7.77,6.68a8.44,8.44,0,0,1,.08,7.45,23,23,0,0,1-6.1,7.73,65.4,65.4,0,0,1-10.75,7.49A123,123,0,0,1,550,173.23c-2.39,1-4.78,1.91-7.19,2.81l-3.67,1.4c-.7.28-1.38.59-2,.92a1.09,1.09,0,0,0-.29.24,1,1,0,0,0-.17.31,15.5,15.5,0,0,0-.55,4.83,1.08,1.08,0,0,0,.13.35.73.73,0,0,0,.26.24c.57.29,1.14.57,1.71.83l1,.43,1.6.75c1.3.57,2.57,1.18,3.82,1.83a33.4,33.4,0,0,1,12.61,12.11A52,52,0,0,1,560,205.5q1.21,2.69,2.34,5.42,1,2.52,2.13,5a53.44,53.44,0,0,0,2.43,4.77,14.06,14.06,0,0,0,2.12,2.62,3.48,3.48,0,0,0,3.94.84,12.78,12.78,0,0,0,4.39-3,32,32,0,0,0,3.81-4.55,22.1,22.1,0,0,0,2.2-3.75l.17-.48c.12-.31.24-.61.37-.9a.34.34,0,0,1,.18-.14.26.26,0,0,1,.21,0,.21.21,0,0,1,.07.22c0,.16,0,.32,0,.48a5.88,5.88,0,0,1-.24,1.34,25.62,25.62,0,0,1-2.28,4.65,27.69,27.69,0,0,1-3.92,5.06,12.05,12.05,0,0,1-4.87,3.2,5.55,5.55,0,0,1-5.15-.94,13.44,13.44,0,0,1-3-3.76,59.93,59.93,0,0,1-2.94-5.74q-1.43-3.18-2.64-6.1t-2.15-4.92a33.1,33.1,0,0,0-18.66-17.09l-.44-.17a10.86,10.86,0,0,0-1.31-.48.85.85,0,0,0-.38,0,.43.43,0,0,0-.27.16,1.86,1.86,0,0,0-.19.53,1.29,1.29,0,0,0,0,.52,1,1,0,0,0,.23.34,3.73,3.73,0,0,0,.36.32l.16.13.15.13a1.79,1.79,0,0,1,.46.45.58.58,0,0,1,0,.6.45.45,0,0,1-.27.16,2.11,2.11,0,0,1-.45.08l-.27,0a1.78,1.78,0,0,0-.74.26.88.88,0,0,0-.26.59c-.06.43-.12.84-.18,1.25-.2,1.57-.4,3.15-.59,4.74A185,185,0,0,1,529,225.76a43,43,0,0,1-1.66,4.61,5.6,5.6,0,0,1-1.05,1.49,0,0,0,0,1,0,0,1.55,1.55,0,0,1-1.4.39,1.49,1.49,0,0,1-1.2-.78,6.76,6.76,0,0,1-.61-1.77,47,47,0,0,1-.44-4.85,124.1,124.1,0,0,1,.4-12.79q1.13-12.36,3-24.65c0-.25.08-.49.11-.74a2.15,2.15,0,0,0-.2-1.49,1.82,1.82,0,0,0-1.24-.65l-.94-.18c-.94-.16-1.85-.34-2.76-.54a.87.87,0,0,1-.4-.31,3.34,3.34,0,0,1-.32-.48.91.91,0,0,1-.11-.34,2.41,2.41,0,0,1,0-.38,1.81,1.81,0,0,0-.87-1.9c-1.6-1.2-3.18-2.44-4.72-3.72Q506,169.49,502.46,163t-2.89-12a16.39,16.39,0,0,1,4.9-9.77,31.47,31.47,0,0,1,11.31-7A61.8,61.8,0,0,1,532.08,130.68Zm46.07,12.1a23.75,23.75,0,0,0-9.08-6.46A52.31,52.31,0,0,0,556,132.71a83.35,83.35,0,0,0-15.1-.84,84.27,84.27,0,0,0-15.08,1.83,57,57,0,0,0-13,4.43,25.47,25.47,0,0,0-9,6.92,13.23,13.23,0,0,0-2.88,9.33q.33,5.25,5.21,11.63t15.35,13.88a3.58,3.58,0,0,0,2.86.44,6.27,6.27,0,0,0,2.67-1.27,2,2,0,0,0,.63-1,6,6,0,0,0,.2-1.19c0-.34.07-.67.13-1,.13-.6.25-1.2.35-1.81.06-.38.13-.76.2-1.14s.18-1,.28-1.46q1.43-7.59,2.91-15.17a11.57,11.57,0,0,1,.48-1.62c.06-.17.12-.34.17-.5l.08,0h.25l.11,0a.29.29,0,0,1,.11.06s0,0,0,.05a1.1,1.1,0,0,1,0,.26,6.34,6.34,0,0,1-.06,1.23q-.66,3.83-1.36,7.62c-.13.79-.27,1.58-.41,2.39a.09.09,0,0,0-.07,0c-.12.73-.23,1.45-.35,2.17q-.66,4.13-1.29,8.24a6.67,6.67,0,0,0,0,1.48.32.32,0,0,0,.09.2.72.72,0,0,0,.18.17.32.32,0,0,0,.19.07,8.06,8.06,0,0,0,3.89-1.22,1,1,0,0,0,.34-.39,2,2,0,0,0,.18-.53,25.36,25.36,0,0,0,.35-2.6q.9-10.32,1.16-20.65a74.36,74.36,0,0,0-.42-10.12,7.44,7.44,0,0,1-.06-1.49.47.47,0,0,1,.17-.29.81.81,0,0,1,.31-.19,1.1,1.1,0,0,1,.35,0,.38.38,0,0,1,.26.19,4,4,0,0,1,.61,1.33c0,.18.06.34.09.5.28,1.56.48,3.14.61,4.73q.32,4.69.18,9.38t-.44,9.39c-.17,2.87-.35,5.74-.52,8.61a.61.61,0,0,0,.12.33,1,1,0,0,0,.29.28.51.51,0,0,0,.31.09l.35-.07a5.23,5.23,0,0,0,1.11-.24q6.51-2.29,13.11-5.3a124.85,124.85,0,0,0,12.33-6.43,60.93,60.93,0,0,0,9.68-7,18.16,18.16,0,0,0,5.19-7.07A6.55,6.55,0,0,0,578.15,142.78Zm-49.39,75.27q.84-4.11,1.51-8.24c.2-1.21.41-2.41.61-3.61l.13,0h0c.2-1.72.4-3.43.61-5.13q.66-5.29,1.29-10.56a3.09,3.09,0,0,0,0-.61v-.13a1.37,1.37,0,0,0-.7-1.27c-1-.55-2-1.07-3-1.57a1.13,1.13,0,0,0-.72-.11,1.1,1.1,0,0,0-.35.11.47.47,0,0,0-.24.22,9.18,9.18,0,0,0-.44,1.79q-1,9-2.08,17.94a129.31,129.31,0,0,0-.87,18c0,.71.07,1.44.13,2.16,0,.15,0,.3,0,.46a4.16,4.16,0,0,0,.13.72c.08.32.25.44.5.35a.15.15,0,0,0,.09,0l.15,0a.2.2,0,0,0,.09-.09,1.09,1.09,0,0,1,.13-.17,3.24,3.24,0,0,0,.44-.79c.2-.8.41-1.6.63-2.38Q528,221.61,528.76,218.05Zm.51-37.13a1,1,0,0,0-.52.48,1.22,1.22,0,0,0-.14.72.91.91,0,0,0,.68.76q.59.18,1.29.33l.67.16.38,0a12.38,12.38,0,0,0,1.26.06.49.49,0,0,0,.32-.12.64.64,0,0,0,.23-.27,5.87,5.87,0,0,0,.44-2.71v-.15a.62.62,0,0,0-.27-.44.64.64,0,0,0-.52-.11Z" transform="translate(-109.7 -125)"/>
  <path class="ec5c2d29-f2a8-40b8-93f9-800f64df7250" d="M569.67,191.44a1.4,1.4,0,0,0-1.29.88,8.6,8.6,0,0,0-.66,6.13,5.72,5.72,0,0,0,4.18,4.3,17.62,17.62,0,0,0,7.8.08,57.45,57.45,0,0,0,9.37-2.56q4.81-1.76,8.87-3.64t6.3-3.14a.25.25,0,0,1,.21,0c.09,0,.15.16.18.37a.51.51,0,0,1-.1.46,54.44,54.44,0,0,1-5.4,3.2,95.35,95.35,0,0,1-8.65,4,63.15,63.15,0,0,1-9.75,3.15,22.14,22.14,0,0,1-8.74.48,8.12,8.12,0,0,1-4.92-2.88,8.86,8.86,0,0,1-1.78-5.06,12.63,12.63,0,0,1,4.84-10.42,8.05,8.05,0,0,1,4.3-1.59,4.31,4.31,0,0,1,2,.44,2.2,2.2,0,0,1,.64,3.54,6.61,6.61,0,0,1-2,1.39A13,13,0,0,1,569.67,191.44Zm4.88-4.15a3.93,3.93,0,0,0-2.15.44,2.27,2.27,0,0,0-1,1q-.2.52.3.6a6.28,6.28,0,0,0,3.2-.71q.48-.24.48-.51a.63.63,0,0,0-.27-.49A2.15,2.15,0,0,0,574.55,187.29Z" transform="translate(-109.7 -125)"/>
  <path class="ec5c2d29-f2a8-40b8-93f9-800f64df7250" d="M705.75,152.65a.29.29,0,0,1,.15.11c.05.05.1.12.15.18a2.43,2.43,0,0,1,.14.2.28.28,0,0,0-.09.07l-.25.17a1.07,1.07,0,0,1-.39.07l-7.62.3q-8.18.27-16.33.61-9.66.44-19.33.95-3.57.16-7.13.36-3.37.15-6.72.37a1.49,1.49,0,0,0-1.27,1,10.24,10.24,0,0,0-.61,2c-.26,1.37-.45,2.75-.58,4.15q-.5,5.1-1,10.23c0,.63-.1,1.27-.17,1.9q-.82,9-1.3,18.44T643.21,213q.09,3.18.29,6.37c0,.59.15,1.52.35,2.81s.47,2.58.78,3.88a11,11,0,0,0,1,2.88,8.12,8.12,0,0,1,1.55,3.9c0,.93-.29,1.5-.85,1.69a1.79,1.79,0,0,1-1.79-.52,4.39,4.39,0,0,1-1.2-2.77q-.39-3.37-.71-6.67l-.15-1.51q-.28-3.19-.54-6.35a5.15,5.15,0,0,0,0-.56,3.46,3.46,0,0,1,0-.46c0-.13,0-.27-.05-.42-.07-.91-.12-1.81-.17-2.71h0a309.31,309.31,0,0,1,.27-39.62c.06-1.11.12-2.21.17-3.3,0-.44,0-.88.05-1.32s-.16-.53-.51-.49a.73.73,0,0,0-.35.15,3.16,3.16,0,0,0-.53.64q-5,8.52-10.77,17t-11.62,16.73q-2.54,3.59-5,7.15a6.24,6.24,0,0,0-1.24,3.49,9.83,9.83,0,0,1-1.25,4.84,9.15,9.15,0,0,1-1.64,1.88,1,1,0,0,1-.55.19,3.42,3.42,0,0,1-.64,0,1.08,1.08,0,0,1-.69-.43,1.19,1.19,0,0,1-.31-.77v-.41a4.1,4.1,0,0,1,.22-1.64c.68-1.67,1.44-3.33,2.27-4.95a4,4,0,0,0,.41-2.83,35,35,0,0,0-2.56-8c-1.12-2.36-2.29-4.7-3.49-7-.47-.91-.94-1.82-1.39-2.73-.21-.43-.48-.9-.79-1.42a36.2,36.2,0,0,1-1.74-3.47,7.44,7.44,0,0,1-.71-3.51,3.21,3.21,0,0,1,1.94-2.64,3.52,3.52,0,0,1,2.44-.34,1.49,1.49,0,0,1,.52.26,4.25,4.25,0,0,1,.46.4.34.34,0,0,1,.07.46,1.09,1.09,0,0,1-.58.42,4.15,4.15,0,0,1-.61.14l-.59.17a5.21,5.21,0,0,0-.68.32l-.08.05c-.68.42-.87,1.21-.58,2.37a16.37,16.37,0,0,0,1.49,3.7c.7,1.31,1.33,2.42,1.9,3.33.28.46.48.8.61,1a75.26,75.26,0,0,1,5.08,11.06c.11.32.22.65.32,1a14.13,14.13,0,0,0,.46,1.39,6.53,6.53,0,0,0,.5.89,2.53,2.53,0,0,0,.71.74.46.46,0,0,0,.67-.09q7.62-10.6,15.11-21.78t13.77-22.61a10.88,10.88,0,0,0,.91-2.59,22.89,22.89,0,0,0,.46-2.73,1.4,1.4,0,0,0-.29-1,1.1,1.1,0,0,0-.91-.39c-1.4,0-2.8.07-4.19.15q-12.83.67-25.66.49a10.2,10.2,0,0,1-2.05-.27.44.44,0,0,1-.24-.16,1.84,1.84,0,0,1-.2-.31L610,156a.5.5,0,0,1,.06-.52.9.9,0,0,1,.55-.34,3.67,3.67,0,0,0,.42-.07,10,10,0,0,1,1.24-.17l2-.1q4-.27,8.13-.46l12.11-.52c2.55-.09,5.1-.2,7.64-.31.29,0,.58-.05.88-.1a1.91,1.91,0,0,1,.36-.07.82.82,0,0,0,.56-.3,1.86,1.86,0,0,0,.3-.53,18.36,18.36,0,0,0,.51-2.45,120.71,120.71,0,0,1,2.54-12.35c.37-1.35.8-2.68,1.29-4a7,7,0,0,1,1.1-1.78,1.76,1.76,0,0,1,1.7-.62,1.81,1.81,0,0,1,1.45,1.08,5.72,5.72,0,0,1,.44,1.59,23.08,23.08,0,0,1-.44,6.69,57.75,57.75,0,0,1-2.61,8.86c-.29.8-.58,1.6-.86,2.42a1.9,1.9,0,0,1-.12.36.48.48,0,0,0,0,.36,1,1,0,0,0,.26.36.44.44,0,0,0,.33.16c.32,0,.66,0,1,0,.92,0,1.84,0,2.76,0q9.38-.21,16.67-.41l4.35-.12,9.44-.08,17.07-.12C702.67,152.55,704.21,152.58,705.75,152.65Zm-58.37-1.57a18.88,18.88,0,0,0,.68-2.08q.59-2,1.32-4.65t1.27-4.92a13.94,13.94,0,0,0,.51-2.85.72.72,0,0,0-.18-.41.49.49,0,0,0-.33-.22q-.17,0-.24.24c-.08.38-.3,1.33-.64,2.86s-.71,3.22-1.11,5.06-.73,3.46-1,4.83A8.62,8.62,0,0,0,647.38,151.08Z" transform="translate(-109.7 -125)"/>
  <path class="ec5c2d29-f2a8-40b8-93f9-800f64df7250" d="M654.39,191.44a1.41,1.41,0,0,0-1.29.88,8.6,8.6,0,0,0-.66,6.13,5.72,5.72,0,0,0,4.19,4.3,17.61,17.61,0,0,0,7.8.08,57.62,57.62,0,0,0,9.36-2.56q4.82-1.76,8.87-3.64t6.3-3.14a.25.25,0,0,1,.21,0c.09,0,.15.16.18.37a.51.51,0,0,1-.09.46,56.13,56.13,0,0,1-5.41,3.2q-3.78,2-8.64,4a63.26,63.26,0,0,1-9.76,3.15,22.13,22.13,0,0,1-8.74.48,8.12,8.12,0,0,1-4.92-2.88,8.86,8.86,0,0,1-1.78-5.06,12.6,12.6,0,0,1,4.85-10.42,8,8,0,0,1,4.29-1.59,4.29,4.29,0,0,1,2,.44,2.15,2.15,0,0,1,1.24,1.6,2.11,2.11,0,0,1-.6,1.94,6.61,6.61,0,0,1-2,1.39A13,13,0,0,1,654.39,191.44Zm4.88-4.15a3.87,3.87,0,0,0-2.14.44,2.22,2.22,0,0,0-1,1c-.14.35,0,.55.29.6a6.28,6.28,0,0,0,3.2-.71c.32-.16.49-.33.49-.51a.63.63,0,0,0-.27-.49A2.39,2.39,0,0,0,659.27,187.29Z" transform="translate(-109.7 -125)"/>
</svg>
